<svg xmlns="http://www.w3.org/2000/svg" width="8" height="14" viewBox="0 0 8 14">
    <defs>
        <clipPath id="imo1a">
            <path fill="#fff"
                  d="M1.676 1.124A.373.373 0 0 0 1.396 1a.373.373 0 0 0-.28.124.447.447 0 0 0 0 .6L6.036 7l-4.92 5.276a.446.446 0 0 0 0 .6.377.377 0 0 0 .56 0L6.884 7.3a.446.446 0 0 0 0-.6z"/>
        </clipPath>
    </defs>
    <g>
        <g opacity=".4">
            <path d="M1.676 1.124A.373.373 0 0 0 1.396 1a.373.373 0 0 0-.28.124.447.447 0 0 0 0 .6L6.036 7l-4.92 5.276a.446.446 0 0 0 0 .6.377.377 0 0 0 .56 0L6.884 7.3a.446.446 0 0 0 0-.6z"/>
            <path fill="none" stroke="#fff" stroke-linecap="round" stroke-linejoin="round" stroke-miterlimit="20"
                  stroke-width="2"
                  d="M1.676 1.124A.373.373 0 0 0 1.396 1a.373.373 0 0 0-.28.124.447.447 0 0 0 0 .6L6.036 7v0l-4.92 5.276a.446.446 0 0 0 0 .6.377.377 0 0 0 .56 0L6.884 7.3a.446.446 0 0 0 0-.6z"
                  clip-path="url(&quot;#imo1a&quot;)"/>
        </g>
    </g>
</svg>